<svg width="20" height="20" viewBox="0 0 20 20" fill="none" xmlns="http://www.w3.org/2000/svg">
<path fill-rule="evenodd" clip-rule="evenodd" d="M5.83332 1.66675C3.53214 1.66675 1.66666 3.53223 1.66666 5.83341L1.66666 14.1667C1.66666 16.4679 3.53214 18.3334 5.83332 18.3334H14.1667C16.4678 18.3334 18.3333 16.4679 18.3333 14.1667V5.83341C18.3333 3.53223 16.4678 1.66675 14.1667 1.66675L5.83332 1.66675ZM11.1208 6.22167C10.6622 5.29262 9.33744 5.29262 8.87892 6.22167L8.2219 7.55294L6.75276 7.76642C5.72748 7.9154 5.3181 9.17537 6.05999 9.89854L7.12307 10.9348L6.87212 12.398C6.69698 13.4191 7.76877 14.1978 8.6858 13.7157L9.99984 13.0249L11.3139 13.7157C12.2309 14.1978 13.3027 13.4191 13.1276 12.398L12.8766 10.9348L13.9397 9.89854C14.6816 9.17537 14.2722 7.9154 13.2469 7.76642L11.7778 7.55294L11.1208 6.22167Z" fill="white"/>
</svg>
